<?xml version="1.0" encoding="UTF-8"?>
<svg xmlns="http://www.w3.org/2000/svg" viewBox="0 0 64 64" width="64" height="64">
  <title>TheMindNetwork Brain Icon</title>
  <defs>
    <style>
      .bg { fill: #A3B18A; }
      .brain { fill: #2E3A2F; }
    </style>
  </defs>
  <rect class="bg" x="4" y="4" width="56" height="56" rx="12"/>
  <path class="brain" d="M32 12c-8 0-12 6-12 12-4 0-6 4-6 8 0 6 4 10 8 12 0 4 4 8 10 8s10-4 10-8c4-2 8-6 8-12 0-4-2-8-6-8 0-6-4-12-12-12zm0 4c5.5 0 8.5 4.9 8.5 9.5v.5h1c2.4 0 4.5 2 4.5 5 0 4.8-3.6 8-7.4 9.4l-.6.2v.6c0 2.2-3.1 5.8-6 5.8s-6-3.6-6-5.8v-.6l-.6-.2C21.6 39 18 35.8 18 31c0-3 2.1-5 4.5-5h1v-.5C23.5 20.9 26.5 16 32 16z"/>
</svg>
